<?xml version="1.0" encoding="utf-8"?>
<!-- Generator: Adobe Illustrator 26.4.1, SVG Export Plug-In . SVG Version: 6.00 Build 0)  -->
<svg version="1.1" id="Capa_1" xmlns="http://www.w3.org/2000/svg" xmlns:xlink="http://www.w3.org/1999/xlink" x="0px" y="0px"
	 viewBox="0 0 500 298" style="enable-background:new 0 0 500 298;" xml:space="preserve">
<style type="text/css">
	.st0{fill:#FFFFFF;}
	.st1{fill:#170B30;}
	.st2{fill:#C64FFF;}
	.st3{clip-path:url(#SVGID_00000178893570391716006010000007875925145020800446_);}
	.st4{clip-path:url(#SVGID_00000119087447736997762490000017408750849254602915_);}
	.st5{fill:url(#SVGID_00000062872373258389633690000005204849975086917544_);}
</style>
<rect class="st0" width="500" height="298"/>
<rect class="st0" width="500" height="298"/>
<rect class="st1" width="500" height="298"/>
<g>
	<g transform="translate(93.2647, 236.978744)">
		<g>
			<path class="st0" d="M36.8-67.5c5.6,0,9.5,0,11.8,0c15.3,0.4,22.9,7.5,22.9,21.5c0,7-2,12.4-5.9,16.2c-3.9,3.8-9.8,5.7-17.5,5.7
				H36.9c-0.8,0-1.2-0.4-1.2-1.2v-41.2c0-0.4,0.1-0.7,0.2-0.8C36.1-67.4,36.4-67.5,36.8-67.5z M44.9-61.3c-0.4,0-0.5,0.3-0.5,0.8
				v29.6c0,0.3,0.1,0.5,0.2,0.6c0.1,0.1,0.3,0.1,0.6,0.1h1.5c5.5,0,9.5-1.2,12.1-3.6c2.5-2.4,3.8-6.5,3.8-12.1
				c0-3.6-0.5-6.5-1.5-8.7c-1-2.2-2.5-3.8-4.5-4.8c-2-1-4.6-1.6-7.9-1.8L44.9-61.3z"/>
		</g>
	</g>
</g>
<g>
	<g transform="translate(125.862885, 236.978744)">
		<g>
			<path class="st0" d="M63.1-27.2c-2.7,2.5-5.9,3.8-9.6,3.8c-3,0-5.3-0.8-7.1-2.4c-1.7-1.6-2.6-3.6-2.6-6.2c0-3.3,1.4-5.8,4.3-7.8
				c2.9-1.9,7-3,12.2-3.2l2.9-0.2c0.6-0.1,0.9-0.4,0.9-0.9v-1.4c0-1.7-0.5-3.1-1.6-4c-1-1-2.4-1.4-4.2-1.4c-3,0-5.3,1.3-6.9,3.9
				c-0.1,0.2-0.2,0.3-0.3,0.4c-0.1,0.1-0.2,0.1-0.4,0.1c-0.2,0-0.3,0-0.5-0.1l-4.9-1.2c-0.3-0.1-0.5-0.2-0.5-0.5
				c0-0.2,0.1-0.4,0.2-0.8c1-2.2,2.7-3.8,5-5c2.3-1.2,5.2-1.8,8.6-1.8c4.4,0,7.6,0.9,9.6,2.6c2.1,1.7,3.1,4.1,3.1,7.3v20.7
				c0,0.4-0.1,0.7-0.2,0.9c-0.1,0.2-0.4,0.2-0.8,0.2h-5c-0.3,0-0.6-0.1-0.8-0.4c-0.2-0.2-0.3-0.6-0.4-1.1l-0.1-1.8
				c0-0.3-0.2-0.5-0.4-0.5C63.7-27.7,63.5-27.5,63.1-27.2z M64.1-38.2c0-0.4-0.1-0.6-0.2-0.8c-0.1-0.2-0.3-0.2-0.7-0.2L60.9-39
				c-2.7,0.2-5,0.8-6.8,1.9c-1.8,1-2.7,2.4-2.7,4.2c0,1.3,0.5,2.4,1.4,3.2c1,0.8,2.2,1.2,3.8,1.2c2,0,3.8-0.6,5.3-1.9
				c1.5-1.2,2.2-2.4,2.2-3.6V-38.2z"/>
		</g>
	</g>
</g>
<g>
	<g transform="translate(150.410506, 236.978744)">
		<g>
			<path class="st0" d="M54.9-24c-0.4,0-0.7-0.1-0.8-0.2c-0.2-0.2-0.2-0.4-0.2-0.8v-29c0-0.7,0.3-1,0.8-1h5.9c0.5,0,0.8,0.3,0.8,0.9
				v3c0,0.2,0.1,0.4,0.2,0.4c0.1,0,0.3,0,0.5-0.2c1.8-1.6,3.5-2.8,5.1-3.6c1.6-0.8,3.3-1.2,5.1-1.2c2.9,0,5.2,0.8,6.8,2.5
				c1.7,1.7,2.5,3.9,2.5,6.6v21.4c0,0.8-0.4,1.2-1.2,1.2h-5.4c-0.4,0-0.7-0.1-0.8-0.2c-0.1-0.2-0.2-0.4-0.2-0.8v-20.2
				c0-1.5-0.4-2.7-1.3-3.5C71.8-49.6,70.6-50,69-50c-1.4,0-2.6,0.3-3.7,0.9c-1.1,0.6-2.4,1.6-3.8,3v20.9c0,0.4-0.1,0.7-0.3,0.9
				c-0.2,0.2-0.5,0.2-1,0.2H54.9z"/>
		</g>
	</g>
</g>
<g>
	<g transform="translate(176.453869, 236.978744)">
		<g>
			<path class="st0" d="M60.9-66.6c0-0.6,0.3-0.9,1-0.9h33c0.7,0,1,0.3,1,0.9v4.6c0,0.6-0.3,0.8-0.9,0.8H83.7c-0.2,0-0.4,0-0.5,0.1
				C83.1-61,83-60.8,83-60.6V-25c0,0.7-0.3,1-0.9,1h-7c-0.6,0-0.8-0.3-0.8-0.9v-35.6c0-0.3-0.1-0.4-0.1-0.5
				c-0.1-0.1-0.3-0.1-0.5-0.1H61.9c-0.3,0-0.6-0.1-0.8-0.2c-0.2-0.1-0.2-0.3-0.2-0.7V-66.6z"/>
		</g>
	</g>
</g>
<g>
	<g transform="translate(205.884627, 236.978744)">
		<g>
			<path class="st0" d="M78.7-37.2c0,1.6,0.4,3.1,1.1,4.3c0.8,1.3,1.8,2.3,3.1,3c1.3,0.7,2.7,1.1,4.3,1.1c1.6,0,3-0.3,4.4-1
				c1.3-0.7,2.6-1.8,3.7-3.2c0.2-0.2,0.4-0.3,0.5-0.3c0.1,0,0.3,0.1,0.5,0.2l3.6,1.6c0.3,0.1,0.4,0.3,0.4,0.5c0,0.1-0.1,0.3-0.2,0.5
				c-1.8,2.5-3.7,4.4-5.9,5.4c-2.1,1.1-4.8,1.6-7.9,1.6c-3,0-5.6-0.7-8-2c-2.4-1.3-4.2-3.2-5.5-5.6c-1.3-2.4-2-5.1-2-8.2
				c0-3.3,0.7-6.2,2-8.7c1.4-2.5,3.2-4.4,5.6-5.8c2.3-1.4,4.9-2.1,7.8-2.1c2.9,0,5.5,0.6,7.8,1.9c2.2,1.3,4,3.2,5.2,5.6
				c1.2,2.4,1.9,5.3,1.9,8.7v0.2c0,0.4-0.1,0.7-0.2,0.8c-0.1,0.2-0.4,0.2-0.8,0.3H79.3C78.9-38.1,78.7-37.8,78.7-37.2z M92.6-42.4
				c0.4,0,0.7,0,0.8-0.1c0.1-0.1,0.2-0.3,0.2-0.7c0-1.2-0.3-2.5-0.8-3.6c-0.5-1.2-1.4-2.1-2.4-2.9c-1.1-0.8-2.3-1.1-3.8-1.1
				c-2.3,0-4.2,0.8-5.6,2.4c-1.4,1.6-2.1,3.6-2.1,6H92.6z"/>
		</g>
	</g>
</g>
<g>
	<g transform="translate(231.576051, 236.978744)">
		<g>
			<path class="st0" d="M94.6-55.7c3.3,0,6,0.8,8.2,2.4c2.2,1.6,3.8,3.6,4.7,5.9l0.1,0.5c0,0.3-0.2,0.5-0.7,0.6l-5.2,0.6l-0.2,0.1
				c-0.3,0-0.5-0.2-0.6-0.6c-0.9-1.5-1.8-2.6-2.7-3.4c-0.8-0.7-2-1.1-3.4-1.1c-2.4,0-4.3,1-5.8,2.9c-1.4,1.9-2.1,4.6-2.1,8.2
				c0,3.6,0.7,6.3,2.2,8.3c1.4,1.9,3.5,2.8,6,2.8c1.7,0,3.1-0.4,4.2-1.3c1.1-0.9,2.2-2.2,3.3-3.9c0.1-0.2,0.2-0.2,0.4-0.3
				c0.1,0,0.3,0,0.6,0.1l3.7,1c0.4,0.1,0.5,0.4,0.4,1c-1,2.3-2.6,4.2-4.8,6c-2.2,1.7-5,2.5-8.4,2.5c-2.9,0-5.6-0.7-7.9-2
				c-2.3-1.3-4.1-3.2-5.5-5.6c-1.3-2.4-2-5.2-2-8.4c0-3.2,0.7-6,2-8.4c1.3-2.5,3.2-4.4,5.5-5.8C89.1-55,91.7-55.7,94.6-55.7z"/>
		</g>
	</g>
</g>
<g>
	<g transform="translate(255.68375, 236.978744)">
		<g>
			<path class="st0" d="M90-24c-0.8,0-1.1-0.4-1.1-1.1v-41.5c0-0.7,0.3-1,0.9-1h5.8c0.5,0,0.8,0.3,0.8,0.9v15.2
				c0,0.2,0.1,0.4,0.2,0.4c0.1,0,0.3,0,0.5-0.2c2-1.6,3.7-2.8,5.2-3.5c1.5-0.7,3.2-1,5-1c3,0,5.3,0.8,6.9,2.4
				c1.6,1.6,2.4,3.9,2.4,6.8v21.3c0,0.8-0.4,1.2-1.2,1.2H110c-0.4,0-0.7-0.1-0.8-0.2c-0.1-0.2-0.2-0.4-0.2-0.8v-20.2
				c0-1.5-0.4-2.7-1.2-3.5c-0.8-0.8-2-1.3-3.6-1.3c-1.4,0-2.6,0.3-3.8,0.9c-1.1,0.6-2.4,1.6-3.8,3v20.9c0,0.4-0.1,0.7-0.3,0.9
				c-0.2,0.2-0.5,0.2-1,0.2H90z"/>
		</g>
	</g>
</g>
<g>
	<g transform="translate(115.811573, 259.762073)">
		<g>
			<path class="st2" d="M44.3-16.3c-0.4,0-0.7-0.1-0.9-0.3c-0.2-0.2-0.3-0.5-0.3-0.9v-10.1h-3.4c-0.8,0-1.1-0.3-1.1-1
				c0-0.7,0.4-1,1.1-1h9.2c0.8,0,1.1,0.3,1.1,1c0,0.7-0.4,1-1.1,1h-3.4v10.1c0,0.4-0.1,0.7-0.3,0.9C45-16.4,44.7-16.3,44.3-16.3z"/>
		</g>
	</g>
</g>
<g>
	<g transform="translate(124.388782, 259.762073)">
		<g>
			<path class="st2" d="M49.9-25.7c0.4,0,0.6,0.1,0.9,0.3c0.2,0.2,0.3,0.5,0.3,0.8v7.2c0,0.3-0.1,0.6-0.3,0.8
				c-0.2,0.2-0.5,0.3-0.9,0.3c-0.3,0-0.6-0.1-0.8-0.3c-0.2-0.2-0.3-0.4-0.3-0.8v-0.5c-0.3,0.5-0.7,0.9-1.1,1.1
				c-0.5,0.3-1,0.4-1.6,0.4c-2.2,0-3.4-1.3-3.4-3.8v-4.6c0-0.3,0.1-0.6,0.3-0.8c0.2-0.2,0.5-0.3,0.8-0.3c0.4,0,0.6,0.1,0.9,0.3
				c0.2,0.2,0.3,0.5,0.3,0.8v4.6c0,0.7,0.1,1.1,0.4,1.4c0.3,0.3,0.7,0.5,1.2,0.5c0.6,0,1.2-0.2,1.5-0.6c0.4-0.4,0.6-1,0.6-1.7v-4.2
				c0-0.3,0.1-0.6,0.3-0.8C49.3-25.6,49.5-25.7,49.9-25.7z"/>
		</g>
	</g>
</g>
<g>
	<g transform="translate(132.49026, 259.762073)">
	</g>
</g>
<g>
	<g transform="translate(136.282146, 259.762073)">
		<g>
			<path class="st2" d="M57.5-25.8c1,0,1.7,0.3,2.3,0.9c0.5,0.6,0.8,1.5,0.8,2.9v4.6c0,0.4-0.1,0.6-0.3,0.8
				c-0.2,0.2-0.5,0.3-0.9,0.3c-0.3,0-0.6-0.1-0.8-0.3c-0.2-0.2-0.3-0.5-0.3-0.8V-22c0-0.7-0.1-1.2-0.4-1.5c-0.2-0.3-0.6-0.4-1.1-0.4
				c-0.6,0-1.1,0.2-1.5,0.6c-0.4,0.4-0.5,1-0.5,1.7v4.2c0,0.4-0.1,0.6-0.3,0.8c-0.2,0.2-0.5,0.3-0.8,0.3c-0.3,0-0.6-0.1-0.8-0.3
				c-0.2-0.2-0.3-0.5-0.3-0.8V-22c0-0.7-0.1-1.2-0.4-1.5c-0.2-0.3-0.6-0.4-1.1-0.4c-0.6,0-1.1,0.2-1.5,0.6c-0.3,0.4-0.5,1-0.5,1.7
				v4.2c0,0.4-0.1,0.6-0.3,0.8c-0.2,0.2-0.5,0.3-0.8,0.3c-0.3,0-0.6-0.1-0.8-0.3c-0.2-0.2-0.3-0.5-0.3-0.8v-7.2
				c0-0.3,0.1-0.6,0.3-0.8c0.2-0.2,0.5-0.3,0.9-0.3c0.3,0,0.6,0.1,0.8,0.3c0.2,0.2,0.3,0.4,0.3,0.8v0.5c0.3-0.5,0.7-0.9,1.1-1.1
				c0.5-0.3,1-0.4,1.7-0.4c1.4,0,2.3,0.6,2.8,1.7c0.3-0.5,0.7-0.9,1.2-1.2C56.2-25.6,56.8-25.8,57.5-25.8z"/>
		</g>
	</g>
</g>
<g>
	<g transform="translate(148.497328, 259.762073)">
		<g>
			<path class="st2" d="M57.9-25.7c0.4,0,0.6,0.1,0.9,0.3c0.2,0.2,0.3,0.5,0.3,0.8v7.2c0,0.3-0.1,0.6-0.3,0.8
				c-0.2,0.2-0.5,0.3-0.9,0.3c-0.3,0-0.6-0.1-0.8-0.3c-0.2-0.2-0.3-0.4-0.3-0.8v-0.5c-0.3,0.5-0.7,0.9-1.1,1.1
				c-0.5,0.3-1,0.4-1.6,0.4c-2.2,0-3.4-1.3-3.4-3.8v-4.6c0-0.3,0.1-0.6,0.3-0.8c0.2-0.2,0.5-0.3,0.8-0.3c0.4,0,0.6,0.1,0.9,0.3
				c0.2,0.2,0.3,0.5,0.3,0.8v4.6c0,0.7,0.1,1.1,0.4,1.4c0.3,0.3,0.7,0.5,1.2,0.5c0.6,0,1.2-0.2,1.5-0.6c0.4-0.4,0.6-1,0.6-1.7v-4.2
				c0-0.3,0.1-0.6,0.3-0.8C57.3-25.6,57.6-25.7,57.9-25.7z"/>
		</g>
	</g>
</g>
<g>
	<g transform="translate(156.598806, 259.762073)">
		<g>
			<path class="st2" d="M58.7-25.8c1.1,0,1.9,0.3,2.4,0.9c0.5,0.6,0.8,1.6,0.8,2.8v4.6c0,0.3-0.1,0.6-0.3,0.8
				c-0.2,0.2-0.5,0.3-0.9,0.3c-0.4,0-0.6-0.1-0.9-0.3c-0.2-0.2-0.3-0.5-0.3-0.8v-4.5c0-0.7-0.1-1.2-0.4-1.5
				c-0.3-0.3-0.7-0.5-1.2-0.5c-0.7,0-1.2,0.2-1.6,0.6c-0.4,0.4-0.6,1-0.6,1.7v4.2c0,0.3-0.1,0.6-0.3,0.8c-0.2,0.2-0.5,0.3-0.9,0.3
				c-0.4,0-0.6-0.1-0.9-0.3c-0.2-0.2-0.3-0.5-0.3-0.8v-7.2c0-0.3,0.1-0.6,0.3-0.8c0.2-0.2,0.5-0.3,0.9-0.3c0.3,0,0.6,0.1,0.8,0.3
				c0.2,0.2,0.3,0.4,0.3,0.8v0.5c0.3-0.5,0.7-0.9,1.2-1.2C57.5-25.6,58.1-25.8,58.7-25.8z"/>
		</g>
	</g>
</g>
<g>
	<g transform="translate(164.784238, 259.762073)">
		<g>
			<path class="st2" d="M63.8-29.7c0.3,0,0.6,0.1,0.9,0.3c0.2,0.2,0.3,0.5,0.3,0.8v11.2c0,0.3-0.1,0.6-0.3,0.8
				c-0.2,0.2-0.5,0.3-0.8,0.3c-0.3,0-0.6-0.1-0.9-0.3c-0.2-0.2-0.3-0.5-0.3-0.8v-0.5c-0.3,0.5-0.7,0.9-1.2,1.2
				c-0.5,0.3-1.1,0.4-1.8,0.4c-0.8,0-1.5-0.2-2.1-0.6c-0.6-0.4-1.1-1-1.4-1.7c-0.3-0.7-0.5-1.6-0.5-2.5c0-0.9,0.2-1.8,0.5-2.5
				c0.3-0.7,0.8-1.3,1.4-1.6c0.6-0.4,1.3-0.6,2.1-0.6c0.7,0,1.2,0.1,1.8,0.4c0.5,0.3,0.9,0.7,1.2,1.1v-4.4c0-0.3,0.1-0.6,0.3-0.8
				C63.1-29.6,63.4-29.7,63.8-29.7z M60.3-18.1c0.8,0,1.3-0.2,1.7-0.8c0.4-0.5,0.6-1.2,0.6-2.2c0-0.9-0.2-1.7-0.6-2.2
				c-0.4-0.5-1-0.8-1.7-0.8c-0.8,0-1.3,0.2-1.8,0.8C58.2-22.7,58-22,58-21.1c0,0.9,0.2,1.7,0.6,2.2C59-18.3,59.6-18.1,60.3-18.1z"/>
		</g>
	</g>
</g>
<g>
	<g transform="translate(173.193539, 259.762073)">
		<g>
			<path class="st2" d="M63.1-16.3c-0.9,0-1.8-0.2-2.5-0.6c-0.7-0.4-1.2-0.9-1.6-1.7c-0.4-0.7-0.6-1.6-0.6-2.5c0-1,0.2-1.8,0.6-2.5
				c0.4-0.7,0.9-1.3,1.6-1.7c0.7-0.4,1.5-0.6,2.5-0.6c0.9,0,1.7,0.2,2.4,0.6c0.7,0.4,1.2,0.9,1.6,1.7c0.4,0.7,0.6,1.5,0.6,2.5
				c0,1-0.2,1.8-0.6,2.5c-0.4,0.7-0.9,1.3-1.6,1.7C64.8-16.5,64-16.3,63.1-16.3z M63.1-18.1c0.8,0,1.3-0.2,1.7-0.7
				c0.4-0.5,0.6-1.2,0.6-2.2c0-1-0.2-1.7-0.6-2.2c-0.4-0.5-1-0.8-1.7-0.8s-1.3,0.3-1.7,0.8C61-22.7,60.8-22,60.8-21
				c0,1,0.2,1.7,0.6,2.2C61.8-18.3,62.3-18.1,63.1-18.1z"/>
		</g>
	</g>
</g>
<g>
	<g transform="translate(181.239044, 259.762073)">
	</g>
</g>
<g>
	<g transform="translate(185.030929, 259.762073)">
		<g>
			<path class="st2" d="M67.6-18c0.6,0,0.9,0.3,0.9,0.8c0,0.3-0.1,0.5-0.4,0.7c-0.2,0.2-0.6,0.2-1,0.2l-0.5,0
				c-2.1-0.2-3.1-1.3-3.1-3.4v-4.1h-0.9c-0.3,0-0.6-0.1-0.8-0.2c-0.2-0.2-0.3-0.4-0.3-0.7s0.1-0.5,0.3-0.6c0.2-0.2,0.4-0.2,0.8-0.2
				h0.9v-1.7c0-0.3,0.1-0.6,0.3-0.8c0.2-0.2,0.5-0.3,0.9-0.3c0.3,0,0.6,0.1,0.8,0.3c0.2,0.2,0.3,0.5,0.3,0.8v1.7h1.6
				c0.3,0,0.6,0.1,0.8,0.2c0.2,0.1,0.3,0.4,0.3,0.6s-0.1,0.5-0.3,0.7c-0.2,0.1-0.4,0.2-0.8,0.2h-1.6v4.2c0,0.9,0.4,1.4,1.3,1.5
				L67.6-18z"/>
		</g>
	</g>
</g>
<g>
	<g transform="translate(190.194045, 259.762073)">
		<g>
			<path class="st2" d="M71.8-18.9c0.2,0,0.4,0.1,0.5,0.2c0.1,0.2,0.2,0.4,0.2,0.6c0,0.4-0.2,0.7-0.7,1c-0.4,0.2-0.9,0.4-1.5,0.6
				c-0.5,0.1-1,0.2-1.5,0.2c-1.5,0-2.6-0.4-3.5-1.3c-0.9-0.8-1.3-2-1.3-3.5c0-0.9,0.2-1.8,0.6-2.5c0.4-0.7,0.9-1.3,1.6-1.7
				c0.7-0.4,1.4-0.6,2.3-0.6c0.8,0,1.5,0.2,2.1,0.5c0.6,0.4,1.1,0.9,1.4,1.5c0.3,0.7,0.5,1.4,0.5,2.3c0,0.5-0.2,0.8-0.7,0.8h-5.5
				c0.1,0.9,0.3,1.5,0.7,1.9c0.4,0.4,1,0.6,1.8,0.6c0.4,0,0.8,0,1.1-0.1c0.3-0.1,0.7-0.2,1-0.4C71.4-18.8,71.7-18.9,71.8-18.9z
				 M68.6-24.1c-0.6,0-1.1,0.2-1.5,0.6c-0.4,0.4-0.6,1-0.7,1.7h4.2c0-0.8-0.2-1.3-0.6-1.7C69.7-23.9,69.2-24.1,68.6-24.1z"/>
		</g>
	</g>
</g>
<g>
	<g transform="translate(197.623893, 259.762073)">
		<g>
			<path class="st2" d="M71.1-16.3c-0.9,0-1.7-0.2-2.4-0.6c-0.7-0.4-1.2-0.9-1.6-1.6c-0.4-0.7-0.6-1.6-0.6-2.5
				c0-0.9,0.2-1.8,0.6-2.5c0.4-0.7,0.9-1.3,1.6-1.7c0.7-0.4,1.5-0.6,2.5-0.6c0.5,0,1,0.1,1.5,0.2c0.5,0.1,0.9,0.3,1.3,0.6
				c0.4,0.3,0.6,0.6,0.6,1c0,0.3-0.1,0.5-0.2,0.7c-0.1,0.2-0.3,0.2-0.5,0.2c-0.1,0-0.3,0-0.4-0.1c-0.1-0.1-0.3-0.1-0.4-0.2
				c-0.3-0.2-0.5-0.3-0.8-0.4c-0.2-0.1-0.5-0.1-0.9-0.1c-0.8,0-1.4,0.2-1.8,0.8C69.2-22.7,69-22,69-21c0,0.9,0.2,1.6,0.6,2.1
				c0.4,0.5,1,0.8,1.8,0.8c0.3,0,0.6,0,0.8-0.1c0.2-0.1,0.5-0.2,0.8-0.4c0.2-0.1,0.4-0.2,0.5-0.2c0.1-0.1,0.3-0.1,0.4-0.1
				c0.2,0,0.4,0.1,0.5,0.3c0.1,0.2,0.2,0.4,0.2,0.6c0,0.2-0.1,0.4-0.1,0.6c-0.1,0.2-0.2,0.3-0.5,0.4c-0.4,0.2-0.8,0.4-1.3,0.6
				C72.2-16.3,71.7-16.3,71.1-16.3z"/>
		</g>
	</g>
</g>
<g>
	<g transform="translate(204.452078, 259.762073)">
		<g>
			<path class="st2" d="M74.7-25.8c1.1,0,1.9,0.3,2.4,0.9c0.5,0.6,0.8,1.6,0.8,2.8v4.6c0,0.3-0.1,0.6-0.3,0.8
				c-0.2,0.2-0.5,0.3-0.9,0.3c-0.4,0-0.6-0.1-0.9-0.3c-0.2-0.2-0.3-0.5-0.3-0.8v-4.5c0-0.7-0.1-1.2-0.4-1.5
				c-0.3-0.3-0.7-0.5-1.2-0.5c-0.7,0-1.2,0.2-1.6,0.6c-0.4,0.4-0.6,1-0.6,1.7v4.2c0,0.3-0.1,0.6-0.3,0.8c-0.2,0.2-0.5,0.3-0.9,0.3
				c-0.4,0-0.6-0.1-0.9-0.3c-0.2-0.2-0.3-0.5-0.3-0.8v-7.2c0-0.3,0.1-0.6,0.3-0.8c0.2-0.2,0.5-0.3,0.9-0.3c0.3,0,0.6,0.1,0.8,0.3
				c0.2,0.2,0.3,0.4,0.3,0.8v0.5c0.3-0.5,0.7-0.9,1.2-1.2C73.4-25.6,74-25.8,74.7-25.8z"/>
		</g>
	</g>
</g>
<g>
	<g transform="translate(212.63751, 259.762073)">
		<g>
			<path class="st2" d="M76.3-16.3c-0.9,0-1.8-0.2-2.5-0.6c-0.7-0.4-1.2-0.9-1.6-1.7c-0.4-0.7-0.6-1.6-0.6-2.5c0-1,0.2-1.8,0.6-2.5
				c0.4-0.7,0.9-1.3,1.6-1.7c0.7-0.4,1.5-0.6,2.5-0.6c0.9,0,1.7,0.2,2.4,0.6c0.7,0.4,1.2,0.9,1.6,1.7c0.4,0.7,0.6,1.5,0.6,2.5
				c0,1-0.2,1.8-0.6,2.5c-0.4,0.7-0.9,1.3-1.6,1.7C78-16.5,77.2-16.3,76.3-16.3z M76.2-18.1c0.8,0,1.3-0.2,1.7-0.7
				c0.4-0.5,0.6-1.2,0.6-2.2c0-1-0.2-1.7-0.6-2.2c-0.4-0.5-1-0.8-1.7-0.8s-1.3,0.3-1.7,0.8c-0.4,0.5-0.6,1.2-0.6,2.2
				c0,1,0.2,1.7,0.6,2.2C74.9-18.3,75.5-18.1,76.2-18.1z"/>
		</g>
	</g>
</g>
<g>
	<g transform="translate(220.683015, 259.762073)">
		<g>
			<path class="st2" d="M75.9-16.3c-0.3,0-0.6-0.1-0.8-0.3c-0.2-0.2-0.3-0.5-0.3-0.8v-11.1c0-0.4,0.1-0.6,0.3-0.8
				c0.2-0.2,0.5-0.3,0.8-0.3s0.6,0.1,0.8,0.3c0.2,0.2,0.3,0.5,0.3,0.8v11.1c0,0.4-0.1,0.6-0.3,0.8C76.5-16.4,76.3-16.3,75.9-16.3z"
				/>
		</g>
	</g>
</g>
<g>
	<g transform="translate(224.237035, 259.762073)">
		<g>
			<path class="st2" d="M80.1-16.3c-0.9,0-1.8-0.2-2.5-0.6c-0.7-0.4-1.2-0.9-1.6-1.7c-0.4-0.7-0.6-1.6-0.6-2.5c0-1,0.2-1.8,0.6-2.5
				c0.4-0.7,0.9-1.3,1.6-1.7c0.7-0.4,1.5-0.6,2.5-0.6c0.9,0,1.7,0.2,2.4,0.6c0.7,0.4,1.2,0.9,1.6,1.7c0.4,0.7,0.6,1.5,0.6,2.5
				c0,1-0.2,1.8-0.6,2.5c-0.4,0.7-0.9,1.3-1.6,1.7C81.9-16.5,81-16.3,80.1-16.3z M80.1-18.1c0.8,0,1.3-0.2,1.7-0.7
				c0.4-0.5,0.6-1.2,0.6-2.2c0-1-0.2-1.7-0.6-2.2c-0.4-0.5-1-0.8-1.7-0.8s-1.3,0.3-1.7,0.8C78-22.7,77.8-22,77.8-21
				c0,1,0.2,1.7,0.6,2.2C78.8-18.3,79.3-18.1,80.1-18.1z M80.6-26.8c-0.1,0.1-0.3,0.1-0.4,0.1c-0.2,0-0.3-0.1-0.4-0.2
				c-0.1-0.1-0.2-0.3-0.2-0.4c0-0.1,0-0.3,0.1-0.4l1.8-2.4c0.3-0.4,0.6-0.6,1-0.6c0.3,0,0.5,0.1,0.7,0.3c0.2,0.2,0.3,0.4,0.3,0.7
				c0,0.3-0.2,0.6-0.5,0.9L80.6-26.8z"/>
		</g>
	</g>
</g>
<g>
	<g transform="translate(232.28254, 259.762073)">
		<g>
			<path class="st2" d="M86.4-25.7c0.3,0,0.6,0.1,0.8,0.3c0.2,0.2,0.3,0.5,0.3,0.8v7.4c0,1.4-0.4,2.5-1.2,3.2
				c-0.8,0.7-2,1.1-3.5,1.1c-1.4,0-2.5-0.2-3.4-0.8c-0.5-0.3-0.7-0.6-0.7-1c0-0.3,0.1-0.5,0.2-0.6c0.1-0.2,0.3-0.2,0.5-0.2
				c0.1,0,0.2,0,0.4,0.1c0.2,0.1,0.3,0.1,0.5,0.2c0.4,0.2,0.8,0.3,1.2,0.4c0.4,0.1,0.8,0.1,1.2,0.1c1.6,0,2.5-0.8,2.5-2.4v-1.2
				c-0.3,0.5-0.7,0.9-1.2,1.2c-0.5,0.3-1.1,0.4-1.8,0.4c-0.8,0-1.5-0.2-2.1-0.6c-0.6-0.4-1.1-0.9-1.4-1.6c-0.3-0.7-0.5-1.5-0.5-2.4
				c0-0.9,0.2-1.7,0.5-2.4c0.3-0.7,0.8-1.2,1.5-1.6c0.6-0.4,1.3-0.6,2.1-0.6c0.7,0,1.3,0.1,1.8,0.4c0.5,0.3,0.9,0.7,1.2,1.2v-0.5
				c0-0.3,0.1-0.6,0.3-0.8C85.7-25.6,86-25.7,86.4-25.7z M82.8-18.5c0.8,0,1.3-0.2,1.8-0.7c0.4-0.5,0.6-1.2,0.6-2
				c0-0.9-0.2-1.5-0.6-2c-0.4-0.5-1-0.7-1.8-0.7c-0.7,0-1.3,0.2-1.8,0.7c-0.4,0.5-0.6,1.2-0.6,2c0,0.8,0.2,1.5,0.6,2
				C81.5-18.7,82.1-18.5,82.8-18.5z"/>
		</g>
	</g>
</g>
<g>
	<g transform="translate(240.747814, 259.762073)">
		<g>
			<path class="st2" d="M82.6-16.3c-0.3,0-0.6-0.1-0.8-0.3c-0.2-0.2-0.3-0.5-0.3-0.8v-7.2c0-0.4,0.1-0.6,0.3-0.8
				c0.2-0.2,0.5-0.3,0.8-0.3s0.6,0.1,0.8,0.3c0.2,0.2,0.3,0.5,0.3,0.8v7.2c0,0.4-0.1,0.6-0.3,0.8C83.2-16.4,83-16.3,82.6-16.3z
				 M82.6-27.4c-0.4,0-0.8-0.1-1-0.3c-0.2-0.2-0.4-0.5-0.4-0.9s0.1-0.7,0.4-0.9c0.2-0.2,0.6-0.3,1-0.3c0.4,0,0.7,0.1,1,0.3
				c0.3,0.2,0.4,0.5,0.4,0.9s-0.1,0.7-0.4,0.9C83.4-27.5,83-27.4,82.6-27.4z"/>
		</g>
	</g>
</g>
<g>
	<g transform="translate(244.301834, 259.762073)">
		<g>
			<path class="st2" d="M86.7-16.3c-0.9,0-1.7-0.2-2.4-0.6c-0.7-0.4-1.2-0.9-1.6-1.6c-0.4-0.7-0.6-1.6-0.6-2.5
				c0-0.9,0.2-1.8,0.6-2.5c0.4-0.7,0.9-1.3,1.6-1.7c0.7-0.4,1.5-0.6,2.5-0.6c0.5,0,1,0.1,1.5,0.2c0.5,0.1,0.9,0.3,1.3,0.6
				c0.4,0.3,0.6,0.6,0.6,1c0,0.3-0.1,0.5-0.2,0.7c-0.1,0.2-0.3,0.2-0.5,0.2c-0.1,0-0.3,0-0.4-0.1c-0.1-0.1-0.3-0.1-0.4-0.2
				c-0.3-0.2-0.5-0.3-0.8-0.4c-0.2-0.1-0.5-0.1-0.9-0.1c-0.8,0-1.4,0.2-1.8,0.8c-0.4,0.5-0.6,1.2-0.6,2.2c0,0.9,0.2,1.6,0.6,2.1
				c0.4,0.5,1,0.8,1.8,0.8c0.3,0,0.6,0,0.8-0.1c0.2-0.1,0.5-0.2,0.8-0.4c0.2-0.1,0.4-0.2,0.5-0.2c0.1-0.1,0.3-0.1,0.4-0.1
				c0.2,0,0.4,0.1,0.5,0.3c0.1,0.2,0.2,0.4,0.2,0.6c0,0.2-0.1,0.4-0.1,0.6c-0.1,0.2-0.2,0.3-0.5,0.4c-0.4,0.2-0.8,0.4-1.3,0.6
				C87.8-16.3,87.2-16.3,86.7-16.3z"/>
		</g>
	</g>
</g>
<g>
	<g transform="translate(251.130019, 259.762073)">
		<g>
			<path class="st2" d="M89.1-16.3c-0.9,0-1.8-0.2-2.5-0.6c-0.7-0.4-1.2-0.9-1.6-1.7c-0.4-0.7-0.6-1.6-0.6-2.5c0-1,0.2-1.8,0.6-2.5
				c0.4-0.7,0.9-1.3,1.6-1.7c0.7-0.4,1.5-0.6,2.5-0.6c0.9,0,1.7,0.2,2.4,0.6c0.7,0.4,1.2,0.9,1.6,1.7c0.4,0.7,0.6,1.5,0.6,2.5
				c0,1-0.2,1.8-0.6,2.5c-0.4,0.7-0.9,1.3-1.6,1.7C90.8-16.5,90-16.3,89.1-16.3z M89.1-18.1c0.8,0,1.3-0.2,1.7-0.7
				c0.4-0.5,0.6-1.2,0.6-2.2c0-1-0.2-1.7-0.6-2.2c-0.4-0.5-1-0.8-1.7-0.8s-1.3,0.3-1.7,0.8c-0.4,0.5-0.6,1.2-0.6,2.2
				c0,1,0.2,1.7,0.6,2.2C87.7-18.3,88.3-18.1,89.1-18.1z"/>
		</g>
	</g>
</g>
<g>
	<defs>
		<rect id="SVGID_1_" x="196.2" y="45.5" width="108" height="103"/>
	</defs>
	<clipPath id="SVGID_00000147185822246008179460000006298316338034782091_">
		<use xlink:href="#SVGID_1_"  style="overflow:visible;"/>
	</clipPath>
	<g style="clip-path:url(#SVGID_00000147185822246008179460000006298316338034782091_);">
		<g>
			<defs>
				<path id="SVGID_00000182528869860003998490000001660750124795035529_" d="M253.9,104.7v-46c0-1.8,1.7-3.1,3.4-2.6l44.9,12.6
					c1.2,0.3,2,1.4,2,2.6v46c0,1.8-1.7,3.1-3.4,2.6l-44.9-12.6C254.7,107,253.9,105.9,253.9,104.7z M219.9,74.8l23.1,6.5
					c1.7,0.5,3.4-0.8,3.4-2.6V55.1c0-1.2-0.8-2.3-2-2.6L221.4,46c-1.7-0.5-3.4,0.8-3.4,2.6v23.6C218,73.4,218.8,74.5,219.9,74.8z
					 M244.5,86.8l-44.9-12.6c-1.7-0.5-3.4,0.8-3.4,2.6v46c0,1.2,0.8,2.3,2,2.6l44.9,12.6c1.7,0.5,3.4-0.8,3.4-2.6v-46
					C246.5,88.2,245.7,87.1,244.5,86.8z M280.4,119.2l-23.1-6.5c-1.7-0.5-3.4,0.8-3.4,2.6V139c0,1.2,0.8,2.3,2,2.6l23.1,6.5
					c1.7,0.5,3.4-0.8,3.4-2.6v-23.6C282.4,120.6,281.6,119.6,280.4,119.2z"/>
			</defs>
			<clipPath id="SVGID_00000052102718962944969500000008686254874514389914_">
				<use xlink:href="#SVGID_00000182528869860003998490000001660750124795035529_"  style="overflow:visible;"/>
			</clipPath>
			<g style="clip-path:url(#SVGID_00000052102718962944969500000008686254874514389914_);">
				
					<linearGradient id="SVGID_00000104688513555134477660000014710663951840737468_" gradientUnits="userSpaceOnUse" x1="741.9568" y1="4018.3655" x2="986.2742" y2="3423.1172" gradientTransform="matrix(1.333333e-17 0.2162 0.216 -1.333333e-17 -553.4236 -89.8029)">
					<stop  offset="0" style="stop-color:#C64FFF"/>
					<stop  offset="6.250000e-02" style="stop-color:#C64FFF"/>
					<stop  offset="9.375000e-02" style="stop-color:#C64FFF"/>
					<stop  offset="0.1016" style="stop-color:#C54FFF"/>
					<stop  offset="0.1094" style="stop-color:#C44FFF"/>
					<stop  offset="0.1172" style="stop-color:#C44FFF"/>
					<stop  offset="0.125" style="stop-color:#C34EFF"/>
					<stop  offset="0.1328" style="stop-color:#C24EFF"/>
					<stop  offset="0.1406" style="stop-color:#C14EFF"/>
					<stop  offset="0.1484" style="stop-color:#C04EFF"/>
					<stop  offset="0.1562" style="stop-color:#C04EFF"/>
					<stop  offset="0.1641" style="stop-color:#BF4EFF"/>
					<stop  offset="0.1719" style="stop-color:#BE4DFF"/>
					<stop  offset="0.1797" style="stop-color:#BD4DFF"/>
					<stop  offset="0.1875" style="stop-color:#BC4DFF"/>
					<stop  offset="0.1953" style="stop-color:#BC4DFF"/>
					<stop  offset="0.2031" style="stop-color:#BB4DFF"/>
					<stop  offset="0.2109" style="stop-color:#BA4DFF"/>
					<stop  offset="0.2188" style="stop-color:#B94CFF"/>
					<stop  offset="0.2266" style="stop-color:#B94CFF"/>
					<stop  offset="0.2344" style="stop-color:#B84CFF"/>
					<stop  offset="0.2422" style="stop-color:#B74CFF"/>
					<stop  offset="0.25" style="stop-color:#B64CFF"/>
					<stop  offset="0.2578" style="stop-color:#B54CFF"/>
					<stop  offset="0.2656" style="stop-color:#B54BFF"/>
					<stop  offset="0.2734" style="stop-color:#B44BFF"/>
					<stop  offset="0.2811" style="stop-color:#B34BFF"/>
					<stop  offset="0.2812" style="stop-color:#B34BFF"/>
					<stop  offset="0.2891" style="stop-color:#B24BFF"/>
					<stop  offset="0.2969" style="stop-color:#B14BFF"/>
					<stop  offset="0.3047" style="stop-color:#B14AFF"/>
					<stop  offset="0.3125" style="stop-color:#B04AFF"/>
					<stop  offset="0.3203" style="stop-color:#AF4AFF"/>
					<stop  offset="0.3281" style="stop-color:#AE4AFF"/>
					<stop  offset="0.3359" style="stop-color:#AD4AFF"/>
					<stop  offset="0.3438" style="stop-color:#AD4AFF"/>
					<stop  offset="0.3516" style="stop-color:#AC49FF"/>
					<stop  offset="0.3594" style="stop-color:#AB49FF"/>
					<stop  offset="0.3672" style="stop-color:#AA49FF"/>
					<stop  offset="0.375" style="stop-color:#AA49FF"/>
					<stop  offset="0.3828" style="stop-color:#A949FF"/>
					<stop  offset="0.3906" style="stop-color:#A849FF"/>
					<stop  offset="0.3984" style="stop-color:#A748FF"/>
					<stop  offset="0.4062" style="stop-color:#A648FF"/>
					<stop  offset="0.4141" style="stop-color:#A648FF"/>
					<stop  offset="0.4219" style="stop-color:#A548FF"/>
					<stop  offset="0.4297" style="stop-color:#A448FF"/>
					<stop  offset="0.4375" style="stop-color:#A348FF"/>
					<stop  offset="0.4453" style="stop-color:#A247FF"/>
					<stop  offset="0.4531" style="stop-color:#A247FF"/>
					<stop  offset="0.4609" style="stop-color:#A147FF"/>
					<stop  offset="0.4688" style="stop-color:#A047FF"/>
					<stop  offset="0.4766" style="stop-color:#9F47FF"/>
					<stop  offset="0.4844" style="stop-color:#9E47FF"/>
					<stop  offset="0.4922" style="stop-color:#9E46FF"/>
					<stop  offset="0.5" style="stop-color:#9D46FF"/>
					<stop  offset="0.5078" style="stop-color:#9C46FF"/>
					<stop  offset="0.5156" style="stop-color:#9B46FF"/>
					<stop  offset="0.5234" style="stop-color:#9B46FF"/>
					<stop  offset="0.5312" style="stop-color:#9A46FF"/>
					<stop  offset="0.5391" style="stop-color:#9945FF"/>
					<stop  offset="0.5469" style="stop-color:#9845FF"/>
					<stop  offset="0.5547" style="stop-color:#9745FF"/>
					<stop  offset="0.5625" style="stop-color:#9745FF"/>
					<stop  offset="0.5703" style="stop-color:#9645FF"/>
					<stop  offset="0.5781" style="stop-color:#9545FF"/>
					<stop  offset="0.5859" style="stop-color:#9444FF"/>
					<stop  offset="0.5938" style="stop-color:#9344FF"/>
					<stop  offset="0.6016" style="stop-color:#9344FF"/>
					<stop  offset="0.6094" style="stop-color:#9244FF"/>
					<stop  offset="0.6172" style="stop-color:#9144FF"/>
					<stop  offset="0.625" style="stop-color:#9044FF"/>
					<stop  offset="0.6328" style="stop-color:#8F43FF"/>
					<stop  offset="0.6406" style="stop-color:#8F43FF"/>
					<stop  offset="0.6484" style="stop-color:#8E43FF"/>
					<stop  offset="0.6562" style="stop-color:#8D43FF"/>
					<stop  offset="0.6641" style="stop-color:#8C43FF"/>
					<stop  offset="0.6719" style="stop-color:#8C43FF"/>
					<stop  offset="0.6797" style="stop-color:#8B42FF"/>
					<stop  offset="0.6875" style="stop-color:#8A42FF"/>
					<stop  offset="0.6953" style="stop-color:#8942FF"/>
					<stop  offset="0.7031" style="stop-color:#8842FF"/>
					<stop  offset="0.7109" style="stop-color:#8842FF"/>
					<stop  offset="0.7188" style="stop-color:#8742FF"/>
					<stop  offset="0.7189" style="stop-color:#8641FF"/>
					<stop  offset="0.7266" style="stop-color:#8641FF"/>
					<stop  offset="0.7344" style="stop-color:#8541FF"/>
					<stop  offset="0.7422" style="stop-color:#8441FF"/>
					<stop  offset="0.75" style="stop-color:#8441FF"/>
					<stop  offset="0.7578" style="stop-color:#8341FF"/>
					<stop  offset="0.7656" style="stop-color:#8241FF"/>
					<stop  offset="0.7734" style="stop-color:#8140FF"/>
					<stop  offset="0.7812" style="stop-color:#8040FF"/>
					<stop  offset="0.7891" style="stop-color:#8040FF"/>
					<stop  offset="0.7969" style="stop-color:#7F40FF"/>
					<stop  offset="0.8047" style="stop-color:#7E40FF"/>
					<stop  offset="0.8125" style="stop-color:#7D3FFF"/>
					<stop  offset="0.8203" style="stop-color:#7C3FFF"/>
					<stop  offset="0.8281" style="stop-color:#7C3FFF"/>
					<stop  offset="0.8438" style="stop-color:#7B3FFF"/>
					<stop  offset="0.875" style="stop-color:#7B3FFF"/>
					<stop  offset="1" style="stop-color:#7B3FFF"/>
				</linearGradient>
				<path style="fill:url(#SVGID_00000104688513555134477660000014710663951840737468_);" d="M304.2,45.5h-108v103h108V45.5z"/>
			</g>
		</g>
	</g>
</g>
</svg>
